custom-analysis
version=1
nRows=15
nColumns=42
inDegrees=no

This file contains tibia displacement and acting force.

Units are S.I. units (seconds, meters, Newtons, ...)
Angles are in degrees.

endheader
time	APT	SIT	knee_angle	aACL_R_force	pACL_R_force	aPCL_R_force	pPCL_R_force	aMCL_R_force	mMCL_R_force	pMCL_R_force	aLCL_R_force	mLCL_R_force	pLCL_R_force	aACL_R_length	pACL_R_length	aPCL_R_length	pPCL_R_length	aMCL_R_length	mMCL_R_length	pMCL_R_length	aLCL_R_length	mLCL_R_length	pLCL_R_length	aACL_R_strain	pACL_R_strain	aPCL_R_strain	pPCL_R_strain	aMCL_R_strain	mMCL_R_strain	pMCL_R_strain	aLCL_R_strain	mLCL_R_strain	pLCL_R_strain	femur_lat_meniscii_force_r	femur_lat_meniscii_torque_r	femur_med_meniscii_force_r	femur_med_meniscii_torque_r	femur_lat_tibia_force_r	femur_lat_tibia_torque_r	femur_med_tibia_force_r	femur_med_tibia_torque_r
      0.51094166	      0.00550265	      0.00133987	     89.99998384	     18.86832010	      2.54581958	    783.04696916	    316.55780610	     29.14843953	      0.00000000	      0.00000000	      0.00000000	      0.00000000	      0.00000000	      0.03307852	      0.02605338	      0.03614264	      0.03250247	      0.06197753	      0.05976231	      0.05621591	      0.04888985	      0.04321574	      0.03797517	      0.04992848	      0.01538173	      0.16231845	      0.08025428	      0.06808082	     -0.00052163	     -0.07429992	     -0.12661140	     -0.23265598	     -0.27448968	    211.18237063	     85.94941002	    104.71301813	     34.08061932	      9.29476730	      0.33074556	    521.41257665	     10.29713871
      0.51578680	      0.00550095	      0.00133882	     89.99998384	     18.87042307	      2.57546762	    784.04565271	    317.63896736	     29.44570018	      0.00000000	      0.00000000	      0.00000000	      0.00000000	      0.00000000	      0.03308055	      0.02605684	      0.03614682	      0.03250487	      0.06196913	      0.05975350	      0.05620701	      0.04890719	      0.04323317	      0.03799240	      0.04999284	      0.01551666	      0.16245275	      0.08033380	      0.06793616	     -0.00066901	     -0.07444654	     -0.12630156	     -0.23234644	     -0.27416043	    209.52612247	     85.27247018	    105.02037840	     34.21131867	      8.03064177	      0.28586089	    525.58440310	     10.37841999
      0.51966016	      0.00549778	      0.00133686	     89.99998384	     18.85910249	      2.52672758	    784.63889355	    317.42151415	     28.99655472	      0.00000000	      0.00000000	      0.00000000	      0.00000000	      0.00000000	      0.03308115	      0.02605890	      0.03615188	      0.03250872	      0.06196362	      0.05974795	      0.05620164	      0.04892178	      0.04324794	      0.03800727	      0.05001177	      0.01559722	      0.16261570	      0.08046198	      0.06784116	     -0.00076178	     -0.07453497	     -0.12604098	     -0.23208434	     -0.27387638	    208.72240407	     84.94415202	    105.36533409	     34.34600344	      7.11734234	      0.25331320	    527.60612911	     10.42565809
      0.52259287	      0.00549443	      0.00133631	     89.99998384	     18.87343491	      2.59535249	    785.25829511	    317.98263648	     29.08441535	      0.00000000	      0.00000000	      0.00000000	      0.00000000	      0.00000000	      0.03308047	      0.02605949	      0.03615496	      0.03251104	      0.06195856	      0.05974299	      0.05619691	      0.04893136	      0.04325767	      0.03801721	      0.04999042	      0.01562010	      0.16271474	      0.08053882	      0.06775406	     -0.00084475	     -0.07461293	     -0.12586984	     -0.23191140	     -0.27368650	    207.91725427	     84.61556077	    105.44687555	     34.38049312	      6.60656508	      0.23507875	    529.81383806	     10.47284037
      0.52552558	      0.00549371	      0.00133541	     89.99998384	     19.05320173	      2.70481249	    785.65114742	    318.08070641	     29.26836419	      0.00000000	      0.00000000	      0.00000000	      0.00000000	      0.00000000	      0.03308208	      0.02606188	      0.03615738	      0.03251248	      0.06195451	      0.05973869	      0.05619252	      0.04894074	      0.04326709	      0.03802648	      0.05004147	      0.01571316	      0.16279236	      0.08058673	      0.06768421	     -0.00091666	     -0.07468520	     -0.12570227	     -0.23174429	     -0.27350939	    207.13741248	     84.29723175	    105.72541435	     34.46360561	      6.05063761	      0.21527783	    531.83676987	     10.51440250
      0.53146536	      0.00549534	      0.00133268	     89.99998384	     19.20070131	      2.75392896	    786.46050669	    318.44604661	     29.45448815	      0.00000000	      0.00000000	      0.00000000	      0.00000000	      0.00000000	      0.03308730	      0.02606791	      0.03616209	      0.03251515	      0.06194879	      0.05973217	      0.05618556	      0.04895914	      0.04328544	      0.03804424	      0.05020725	      0.01594801	      0.16294379	      0.08067570	      0.06758565	     -0.00102563	     -0.07479975	     -0.12537359	     -0.23141842	     -0.27317007	    205.91915279	     83.79975309	    106.17120591	     34.62392290	      4.99784898	      0.17784071	    534.23618385	     10.56125393
      0.53712876	      0.00549655	      0.00133119	     89.99998384	     19.11699139	      2.67801295	    786.94505322	    318.59118426	     29.27691773	      0.00000000	      0.00000000	      0.00000000	      0.00000000	      0.00000000	      0.03309097	      0.02607218	      0.03616520	      0.03251668	      0.06194352	      0.05972627	      0.05617932	      0.04897314	      0.04329940	      0.03805775	      0.05032352	      0.01611478	      0.16304403	      0.08072630	      0.06749484	     -0.00112437	     -0.07490256	     -0.12512350	     -0.23117045	     -0.27291203	    204.94302785	     83.40096077	    106.54299040	     34.75863056	      4.30158096	      0.15311467	    537.22067085	     10.62122098
      0.53769510	      0.00549643	      0.00133109	     89.99998384	     19.14793615	      2.69856709	    786.97441028	    318.55462917	     29.29002002	      0.00000000	      0.00000000	      0.00000000	      0.00000000	      0.00000000	      0.03309117	      0.02607249	      0.03616549	      0.03251684	      0.06194297	      0.05972568	      0.05617872	      0.04897432	      0.04330059	      0.03805892	      0.05032985	      0.01612677	      0.16305336	      0.08073179	      0.06748523	     -0.00113420	     -0.07491242	     -0.12510230	     -0.23114931	     -0.27288960	    204.85343973	     83.36442220	    106.59002390	     34.77492516	      4.24526153	      0.15111533	    537.54155241	     10.62815825
      0.54052680	      0.00549577	      0.00133014	     89.99998384	     19.21690941	      2.77076218	    787.35134250	    318.89316666	     29.46396051	      0.00000000	      0.00000000	      0.00000000	      0.00000000	      0.00000000	      0.03309245	      0.02607436	      0.03616735	      0.03251811	      0.06194084	      0.05972344	      0.05617642	      0.04898032	      0.04330661	      0.03806487	      0.05037064	      0.01619976	      0.16311304	      0.08077379	      0.06744866	     -0.00117175	     -0.07495025	     -0.12499510	     -0.23104241	     -0.27277596	    204.70683926	     83.30666958	    106.60562712	     34.77364578	      3.96004369	      0.14099640	    538.21221433	     10.63860786
      0.54444245	      0.00549164	      0.00132901	     89.99998384	     18.94902882	      2.61946820	    787.89344252	    319.38677694	     29.20734042	      0.00000000	      0.00000000	      0.00000000	      0.00000000	      0.00000000	      0.03309197	      0.02607532	      0.03617046	      0.03252079	      0.06193771	      0.05972058	      0.05617384	      0.04898723	      0.04331367	      0.03807224	      0.05035531	      0.01623694	      0.16321307	      0.08086302	      0.06739461	     -0.00121951	     -0.07499278	     -0.12487169	     -0.23091706	     -0.27263520	    204.19793965	     83.09765768	    106.42142131	     34.72709703	      3.66411308	      0.13048069	    539.10385597	     10.66021231
      0.54748084	      0.00548871	      0.00132883	     89.99998384	     19.00138753	      2.62491969	    788.02016475	    319.28347196	     29.29114625	      0.00000000	      0.00000000	      0.00000000	      0.00000000	      0.00000000	      0.03309192	      0.02607638	      0.03617170	      0.03252175	      0.06193496	      0.05971800	      0.05617138	      0.04899077	      0.04331728	      0.03807602	      0.05035372	      0.01627818	      0.16325307	      0.08089507	      0.06734722	     -0.00126268	     -0.07503330	     -0.12480854	     -0.23085312	     -0.27256302	    204.07556465	     83.04741220	    106.24736205	     34.65034460	      3.49394939	      0.12444484	    540.72939899	     10.69169996
      0.54809628	      0.00548824	      0.00132879	     89.99998384	     19.02266441	      2.63716193	    788.07218534	    319.33911059	     29.36779269	      0.00000000	      0.00000000	      0.00000000	      0.00000000	      0.00000000	      0.03309191	      0.02607655	      0.03617193	      0.03252193	      0.06193450	      0.05971756	      0.05617096	      0.04899142	      0.04331794	      0.03807671	      0.05035354	      0.01628491	      0.16326038	      0.08090090	      0.06733928	     -0.00126997	     -0.07504015	     -0.12479692	     -0.23084137	     -0.27254984	    204.00301936	     83.01777524	    106.29333876	     34.65348556	      3.46386035	      0.12338010	    540.95367460	     10.69675495
      0.54984212	      0.00548695	      0.00132858	     89.99998384	     18.95443738	      2.56346666	    788.23811551	    319.54343840	     29.46120410	      0.00000000	      0.00000000	      0.00000000	      0.00000000	      0.00000000	      0.03309179	      0.02607689	      0.03617269	      0.03252257	      0.06193343	      0.05971658	      0.05617005	      0.04899325	      0.04331981	      0.03807867	      0.05034969	      0.01629808	      0.16328493	      0.08092222	      0.06732086	     -0.00128645	     -0.07505517	     -0.12476421	     -0.23080815	     -0.27251239	    203.85711658	     82.95786576	    106.25041286	     34.63721290	      3.38476050	      0.12058299	    541.32752694	     10.70419184
      0.55515316	      0.00548318	      0.00132786	     89.99998384	     18.80224428	      2.39181515	    788.50325529	    319.55423660	     29.41290905	      0.00000000	      0.00000000	      0.00000000	      0.00000000	      0.00000000	      0.03309080	      0.02607707	      0.03617498	      0.03252468	      0.06193125	      0.05971473	      0.05616849	      0.04899752	      0.04332422	      0.03808341	      0.05031829	      0.01630505	      0.16335830	      0.08099240	      0.06728336	     -0.00131739	     -0.07508090	     -0.12468797	     -0.23072989	     -0.27242184	    203.77867351	     82.92519642	    106.18929191	     34.62747702	      3.21783922	      0.11466480	    541.77819773	     10.70943482
      0.56046420	      0.00548000	      0.00132845	     89.99998384	     18.89544938	      2.52716774	    788.82059444	    320.21513847	     30.02870451	      0.00000000	      0.00000000	      0.00000000	      0.00000000	      0.00000000	      0.03308842	      0.02607537	      0.03617565	      0.03252548	      0.06192932	      0.05971315	      0.05616724	      0.04899837	      0.04332521	      0.03808476	      0.05024257	      0.01623909	      0.16337990	      0.08101891	      0.06725001	     -0.00134385	     -0.07510147	     -0.12467275	     -0.23071227	     -0.27239594	    203.58921713	     82.84736824	    105.97532714	     34.55498717	      3.22787892	      0.11502457	    542.44277077	     10.73424333
